<svg width="180" height="48" viewBox="0 0 180 48" fill="none" xmlns="http://www.w3.org/2000/svg">
<path d="M34.9986 47.9999H13.0013C5.81721 47.9999 0 42.1827 0 34.9986V13.0013C0 5.81722 5.81721 0 13.0013 0H34.9986C42.1827 0 47.9999 5.81722 47.9999 13.0013V34.9986C47.9681 42.1827 42.1509 47.9999 34.9986 47.9999Z" fill="#009FE3"/>
<path d="M39.8612 23.4279C39.6387 23.4597 39.4161 23.4597 39.1936 23.4597C36.142 23.4597 33.6625 20.9802 33.6625 17.9286C33.6625 16.1167 34.5526 14.4955 35.9195 13.4783C35.5062 13.0014 35.0294 12.5246 34.5526 12.1114C34.3619 11.9207 34.1393 11.7617 33.9486 11.6028C33.8214 11.5074 33.6625 11.3802 33.5354 11.2849C33.5036 11.2531 33.4718 11.2213 33.4082 11.1895C33.2493 11.0624 33.0585 10.9352 32.8996 10.8399C32.7089 10.7127 32.5181 10.5856 32.3274 10.4584C32.1049 10.3312 31.8506 10.1723 31.5963 10.0452C31.4056 9.9498 31.2466 9.85442 31.0559 9.75906C30.897 9.6637 30.738 9.60012 30.5473 9.53654C30.4837 9.50475 30.3883 9.47297 30.3248 9.44118C30.134 9.34582 29.9433 9.28224 29.7526 9.21866C29.5301 9.1233 29.3393 9.05974 29.1168 8.99616H29.085C28.8625 8.93258 28.64 8.83722 28.3857 8.77364C28.1632 8.71006 27.9407 8.64648 27.7182 8.5829C27.6864 8.5829 27.6228 8.55112 27.591 8.55112C27.4003 8.51933 27.1777 8.45575 26.987 8.42396C26.987 8.42396 26.987 8.42396 26.9552 8.42396C26.7645 8.39217 26.6056 8.36039 26.4148 8.3286C26.3195 8.3286 26.2559 8.29682 26.1605 8.29682C25.938 8.26503 25.7155 8.23325 25.493 8.20146C25.2387 8.16967 24.9844 8.16967 24.7619 8.13788C24.5076 8.13788 24.2533 8.10608 23.9989 8.10608C19.6122 8.10608 15.6387 9.88622 12.7778 12.7471C12.2374 13.2875 11.7288 13.8597 11.2837 14.4637C11.1248 14.6544 10.9976 14.8769 10.8387 15.0994C10.7751 15.1948 10.7115 15.322 10.6162 15.4173C10.4255 15.7034 10.2665 15.9895 10.1076 16.2756C9.63075 17.1339 9.2493 18.024 8.93142 18.9776C8.86784 19.2001 8.80427 19.4226 8.74069 19.6452C8.35923 21.012 8.13672 22.4743 8.13672 24.0001C8.13672 24.1908 8.13672 24.3816 8.13672 24.5405C8.13672 24.7312 8.13672 24.8902 8.16851 25.0809C8.2003 25.3988 8.23208 25.7167 8.26387 26.0345C8.29566 26.1617 8.29566 26.2888 8.32745 26.416C8.32745 26.5114 8.35923 26.6067 8.35923 26.7021C8.39102 26.8292 8.39102 26.9882 8.42281 27.1153C8.4546 27.3379 8.51817 27.5921 8.58175 27.8147C8.61354 27.9418 8.64532 28.069 8.67711 28.1643C8.77247 28.514 8.86784 28.8637 8.99499 29.2133C9.05857 29.3723 9.12214 29.5312 9.18572 29.6902C9.2493 29.8491 9.31287 30.008 9.37645 30.167C9.44003 30.3259 9.50361 30.4849 9.59897 30.6438C9.66255 30.8027 9.72612 30.9617 9.82148 31.0888C9.94863 31.3749 10.1076 31.661 10.2665 31.9153C10.2665 31.9471 10.2983 31.9471 10.2983 31.9789L8.29566 38.1776C8.16851 38.6226 8.26387 39.0994 8.61354 39.4173C8.93142 39.7352 9.40824 39.8623 9.85327 39.7352L16.0519 37.7325C16.0837 37.7325 16.0837 37.7643 16.1155 37.7643C16.4016 37.9233 16.6559 38.0822 16.942 38.2094C17.1009 38.2729 17.2599 38.3683 17.387 38.4319C17.5142 38.4954 17.6731 38.559 17.8321 38.6226H17.8639C18.0228 38.6862 18.1817 38.7498 18.3407 38.8133C18.4996 38.8769 18.6586 38.9405 18.8175 39.0041C18.9447 39.0358 19.04 39.0994 19.1672 39.1312C19.3897 39.1948 19.644 39.2902 19.8983 39.3537C20.0254 39.3855 20.1208 39.4173 20.248 39.4491C20.693 39.5445 21.1698 39.6398 21.6148 39.7352C21.742 39.767 21.8691 39.767 22.0281 39.7988C22.346 39.8305 22.6638 39.8623 22.9817 39.8941C23.1725 39.8941 23.3314 39.9259 23.5221 39.9259C23.7129 39.9259 23.8718 39.9259 24.0625 39.9259C32.836 39.9259 39.9565 32.8054 39.9565 24.0319V23.9683C39.8612 23.7776 39.8612 23.6186 39.8612 23.4279ZM17.8003 26.0663C16.8149 26.0663 15.9884 25.2398 15.9884 24.2544C15.9884 23.269 16.8149 22.4425 17.8003 22.4425C18.7857 22.4425 19.6122 23.269 19.6122 24.2544C19.6122 25.2398 18.8175 26.0663 17.8003 26.0663ZM23.9989 26.0663C23.0135 26.0663 22.187 25.2398 22.187 24.2544C22.187 23.269 23.0135 22.4425 23.9989 22.4425C25.0162 22.4425 25.8109 23.269 25.8109 24.2544C25.8109 25.2398 24.9844 26.0663 23.9989 26.0663ZM30.1658 26.0663C29.1804 26.0663 28.3539 25.2398 28.3539 24.2544C28.3539 23.269 29.1804 22.4425 30.1658 22.4425C31.1513 22.4425 31.9777 23.269 31.9777 24.2544C31.9777 25.2398 31.1513 26.0663 30.1658 26.0663Z" fill="white"/>
<path d="M75.3847 30.3629L75.297 30.2752L74.157 28.9818L74.0913 28.916C74.0693 28.8941 74.0474 28.8722 74.0255 28.8722C73.9378 28.8064 73.8063 28.7625 73.6747 28.7625C73.5432 28.7625 73.4117 28.8064 73.324 28.8722C73.324 28.8722 73.324 28.8722 73.3021 28.8722C73.2801 28.8941 73.2582 28.916 73.2363 28.9379C72.3155 29.7052 71.4825 30.2752 70.759 30.6698C69.9479 31.0863 68.9614 31.3056 67.8652 31.3056C65.936 31.3056 64.3795 30.604 63.1957 29.1791C62.0119 27.7541 61.4419 25.8907 61.4419 23.5888C61.4419 21.2869 62.0338 19.4454 63.2176 18.0423C64.4014 16.6393 65.9799 15.9378 67.9748 15.9378C68.9614 15.9378 69.8602 16.1131 70.6933 16.4639C71.3948 16.7489 72.1621 17.2312 72.9951 17.9108C73.1047 17.9985 73.2363 18.0423 73.3897 18.0423C73.5651 18.0423 73.7186 17.9766 73.8282 17.867C73.8501 17.845 73.872 17.8231 73.872 17.8012L75.012 16.4639C75.0339 16.442 75.0559 16.4201 75.0559 16.3981C75.1436 16.2885 75.1874 16.157 75.1874 16.0035C75.1874 15.8281 75.1216 15.6747 75.012 15.5651L74.9901 15.5432C74.9682 15.5212 74.9463 15.4993 74.9243 15.4993C73.894 14.6662 72.8855 14.0743 71.899 13.6797C70.759 13.2193 69.4656 13.0001 68.0406 13.0001C64.9714 13.0001 62.5161 13.9866 60.7184 15.9597C58.9208 17.9327 58 20.4758 58 23.5888C58 26.7237 58.8988 29.2887 60.7184 31.2617C62.5161 33.2567 64.9276 34.2432 67.9529 34.2432C69.4656 34.2432 70.8248 33.9801 72.0305 33.4321C73.0828 32.9717 74.179 32.2263 75.3189 31.2398C75.3409 31.2179 75.3628 31.196 75.3847 31.174C75.4066 31.1521 75.4066 31.1521 75.4285 31.1302C75.5162 31.0206 75.5601 30.889 75.5601 30.7356C75.5162 30.5821 75.4724 30.4506 75.3847 30.3629Z" fill="#142630"/>
<path d="M88.2535 20.7168C87.3546 19.8179 86.0831 19.3576 84.4608 19.3576C82.6413 19.3576 81.2382 19.9933 80.2517 21.2429V14.4469C80.2517 14.4249 80.2517 14.403 80.2517 14.403C80.2517 14.2934 80.2078 14.1838 80.1421 14.118C80.1201 14.0961 80.0982 14.0742 80.0763 14.0523C80.0544 14.0303 80.0325 14.0084 80.0105 14.0084C79.9009 13.9426 79.7913 13.8988 79.6598 13.8988H77.7525C77.621 13.8988 77.4894 13.9426 77.4017 14.0084C77.4017 14.0084 77.4017 14.0084 77.3798 14.0084C77.3579 14.0303 77.336 14.0523 77.3141 14.0742C77.2044 14.1838 77.1387 14.2934 77.1387 14.4469C77.1387 14.4688 77.1387 14.4907 77.1387 14.5126V33.6292C77.1387 33.8265 77.2264 34.0019 77.3579 34.1115C77.4675 34.1992 77.599 34.265 77.7525 34.265H79.6598C79.8132 34.265 79.9448 34.2211 80.0325 34.1335C80.0544 34.1115 80.0763 34.1115 80.0982 34.0896C80.1202 34.0677 80.1201 34.0677 80.1421 34.0458C80.2078 33.9581 80.2517 33.8704 80.2736 33.7608V25.4959C80.2736 24.5313 80.5805 23.7202 81.1944 23.0844C81.8082 22.4487 82.5755 22.1417 83.5182 22.1417C84.4608 22.1417 85.2062 22.4267 85.7324 22.9967C86.2585 23.5667 86.4997 24.3779 86.4997 25.4082V33.6292C86.4997 33.8046 86.5873 33.9581 86.7189 34.0677C86.8285 34.1554 86.96 34.2211 87.1135 34.2211H89.0208C89.1742 34.2211 89.3058 34.1773 89.3935 34.0896C89.4154 34.0677 89.4373 34.0677 89.4592 34.0458C89.4811 34.0238 89.4811 34.0238 89.5031 34.0019C89.5688 33.9142 89.6127 33.8265 89.6346 33.7169C89.6346 33.695 89.6346 33.6512 89.6346 33.6292V24.3779C89.6127 22.8433 89.1742 21.6375 88.2535 20.7168Z" fill="#142630"/>
<path d="M102.833 20.2565C101.781 19.3576 100.268 18.9192 98.3392 18.9192C95.9715 18.9192 93.9547 19.7961 92.2885 21.5718C92.2666 21.5938 92.2447 21.6157 92.2228 21.6376L92.2008 21.6595C92.1351 21.7472 92.1132 21.8349 92.0912 21.9445V21.9664C92.0912 21.9884 92.0912 22.0103 92.0912 22.0322C92.0912 22.0541 92.0912 22.0541 92.0912 22.0761C92.0912 22.098 92.0912 22.098 92.0912 22.1199C92.1132 22.2514 92.1789 22.383 92.2666 22.4707C92.2885 22.4926 92.2885 22.4926 92.3105 22.5145L93.3628 23.501C93.3847 23.5229 93.3847 23.523 93.4066 23.5449C93.5162 23.6326 93.6478 23.6983 93.8012 23.6983C93.9547 23.6983 94.0862 23.6545 94.1739 23.5668C94.1958 23.5449 94.2177 23.5449 94.2177 23.523C94.9193 22.8653 95.5331 22.4049 96.0812 22.098C96.7388 21.7472 97.5061 21.5718 98.383 21.5718C99.3038 21.5718 100.027 21.7911 100.553 22.2076C101.08 22.646 101.365 23.238 101.365 24.0272V24.5533L98.0761 25.1452C96.0593 25.5179 94.4808 26.066 93.3189 26.8333C92.2009 27.5567 91.6309 28.6748 91.6309 30.1875C91.6309 31.5247 92.1132 32.5332 93.0558 33.2347C93.9985 33.9143 95.2481 34.2651 96.8046 34.2651C99.0188 34.2651 100.619 33.5636 101.562 32.1824V33.2786C101.584 33.432 101.671 33.5855 101.781 33.6732C101.891 33.7609 102.022 33.8047 102.176 33.8047H103.776C103.929 33.8047 104.061 33.7609 104.149 33.6732C104.171 33.6512 104.193 33.6293 104.214 33.6293C104.236 33.6074 104.236 33.6074 104.258 33.5855C104.324 33.4978 104.368 33.4101 104.39 33.3005C104.39 33.2786 104.39 33.2566 104.39 33.2347V33.2128V24.0052C104.434 22.361 103.886 21.1553 102.833 20.2565ZM101.408 28.1048C101.408 29.2229 101.014 30.0778 100.246 30.7355C99.4792 31.3713 98.4927 31.7001 97.2869 31.7001C96.4977 31.7001 95.8839 31.5467 95.4454 31.2397C94.985 30.9328 94.7658 30.5163 94.7658 29.9682C94.7658 29.2667 95.0727 28.7186 95.7085 28.346C96.3442 27.9733 97.4185 27.6225 98.9092 27.2937L101.408 26.7675V28.1048Z" fill="#142630"/>
<path d="M115.482 33.2346C115.482 33.2127 115.482 33.2127 115.482 33.2346C115.482 33.2127 115.482 33.2127 115.482 33.2127V33.1908C115.482 33.1689 115.482 33.1469 115.482 33.125L115.285 31.9412C115.285 31.9412 115.285 31.9412 115.285 31.9193V31.8973L115.263 31.7658C115.241 31.7 115.219 31.6343 115.175 31.5685C115.153 31.5466 115.131 31.5247 115.109 31.5027C115.088 31.4808 115.066 31.4589 115.044 31.4589C114.978 31.415 114.89 31.3712 114.803 31.3493C114.781 31.3493 114.759 31.3493 114.759 31.3493C114.737 31.3493 114.715 31.3493 114.715 31.3493C114.693 31.3493 114.671 31.3493 114.671 31.3493C114.627 31.3493 114.583 31.3712 114.561 31.3712C114.079 31.4808 113.663 31.5247 113.334 31.5247C112.808 31.5247 112.413 31.415 112.15 31.1739C111.909 30.9327 111.777 30.5601 111.777 29.9901V21.9006H114.89C115 21.8787 115.109 21.8348 115.175 21.7691C115.197 21.7471 115.219 21.7471 115.219 21.7252C115.241 21.7033 115.241 21.7033 115.263 21.6814C115.329 21.5937 115.373 21.506 115.394 21.3964V20.1468V20.1249C115.394 20.1029 115.394 20.081 115.394 20.081C115.394 19.9714 115.351 19.8618 115.285 19.796C115.263 19.7741 115.241 19.7522 115.219 19.7302C115.219 19.7302 115.219 19.7302 115.197 19.7302C115.175 19.7083 115.153 19.6864 115.131 19.6864C115.066 19.6426 114.978 19.5987 114.89 19.5768H111.755V15.5211C111.755 15.4992 111.755 15.4772 111.755 15.4772C111.755 15.3676 111.711 15.258 111.646 15.1922C111.624 15.1703 111.602 15.1484 111.58 15.1265C111.558 15.1045 111.536 15.0826 111.514 15.0826C111.448 15.0388 111.361 14.9949 111.273 14.973C111.229 14.973 111.207 14.973 111.163 14.973H109.168C109.125 14.973 109.103 14.973 109.059 14.973C108.971 14.9949 108.883 15.0169 108.796 15.0826C108.796 15.0826 108.796 15.0826 108.774 15.1046C108.752 15.1265 108.752 15.1265 108.73 15.1484L108.708 15.1703C108.686 15.1922 108.686 15.2142 108.664 15.2361L108.642 15.258C108.576 15.3457 108.555 15.4334 108.533 15.543V19.6645H106.494C106.472 19.6645 106.45 19.6645 106.45 19.6645C106.362 19.6864 106.275 19.7083 106.187 19.7741C106.187 19.7741 106.187 19.7741 106.165 19.7741C106.143 19.796 106.143 19.796 106.121 19.8179L106.099 19.8399C106.077 19.8618 106.077 19.8837 106.055 19.9056L106.033 19.9275C105.968 20.0152 105.946 20.1029 105.924 20.2125V20.2345V21.4841C105.924 21.506 105.924 21.506 105.924 21.5279C105.946 21.6594 106.012 21.791 106.099 21.8787C106.121 21.9006 106.121 21.9006 106.143 21.9225C106.231 21.9883 106.34 22.0321 106.45 22.0541C106.472 22.0541 106.516 22.0541 106.538 22.0541H108.533V30.3408C108.533 31.6562 108.84 32.6427 109.475 33.2566C110.089 33.8923 111.098 34.1992 112.479 34.1992C113.312 34.1992 114.145 34.0896 114.956 33.8485C115 33.8265 115.066 33.8265 115.109 33.8046C115.153 33.7827 115.197 33.7608 115.241 33.7389C115.263 33.7169 115.285 33.7169 115.285 33.695C115.307 33.6731 115.307 33.6731 115.329 33.6512C115.394 33.5635 115.438 33.4758 115.46 33.3662C115.46 33.3442 115.46 33.3223 115.46 33.3004C115.482 33.2566 115.482 33.2566 115.482 33.2346Z" fill="#142630"/>
<path d="M132.055 14.4688C132.055 14.4469 132.055 14.4469 132.055 14.4469V14.425C132.055 14.403 132.055 14.3811 132.055 14.3592C132.055 14.3373 132.055 14.3373 132.055 14.3153C132.033 14.2496 132.011 14.1838 131.967 14.118C131.945 14.0961 131.923 14.0742 131.901 14.0523C131.879 14.0303 131.858 14.0084 131.836 14.0084C131.77 13.9646 131.682 13.9207 131.594 13.8988C131.573 13.8988 131.551 13.8988 131.551 13.8988C131.529 13.8988 131.507 13.8988 131.507 13.8988H119.405C119.362 13.8988 119.34 13.8988 119.296 13.8988H119.274C119.274 13.8988 119.274 13.8988 119.252 13.8988C119.23 13.8988 119.208 13.8988 119.186 13.8988C119.142 13.8988 119.077 13.9207 119.033 13.9427C118.901 13.9865 118.792 14.0303 118.682 14.118L118.66 14.1399C118.638 14.1619 118.594 14.1838 118.572 14.2057C118.55 14.2276 118.55 14.2276 118.529 14.2496C118.507 14.2934 118.463 14.3153 118.441 14.3592C118.419 14.3811 118.419 14.3811 118.397 14.403C118.287 14.5565 118.2 14.7538 118.178 14.9511C118.178 14.973 118.178 14.9949 118.178 14.9949V33.6292C118.178 33.6512 118.178 33.6512 118.178 33.6731C118.2 33.8046 118.265 33.9361 118.353 34.0238C118.375 34.0458 118.375 34.0458 118.397 34.0677C118.485 34.1335 118.594 34.1773 118.704 34.1992C118.726 34.1992 118.77 34.1992 118.792 34.1992H120.94C120.984 34.1992 121.006 34.1992 121.028 34.1992C121.093 34.1992 121.137 34.1773 121.181 34.1554C121.225 34.1335 121.269 34.1115 121.313 34.0896C121.335 34.0677 121.357 34.0677 121.357 34.0458C121.378 34.0238 121.378 34.0238 121.4 34.0019C121.466 33.9142 121.51 33.8265 121.532 33.7169C121.532 33.695 121.532 33.6731 121.532 33.6512V25.6713H130.805H130.827C130.893 25.6713 130.937 25.6494 130.981 25.6274C131.024 25.6055 131.068 25.5836 131.112 25.5617C131.134 25.5398 131.156 25.5398 131.156 25.5178C131.178 25.4959 131.178 25.4959 131.2 25.474C131.266 25.3863 131.309 25.2986 131.331 25.189C131.331 25.1671 131.331 25.1452 131.331 25.1232V23.4352V23.4133V23.3913C131.331 23.3694 131.331 23.3475 131.331 23.3256C131.331 23.3036 131.331 23.3036 131.331 23.2817C131.309 23.2159 131.288 23.1502 131.244 23.0844C131.222 23.0625 131.2 23.0406 131.178 23.0186C131.156 22.9967 131.134 22.9748 131.112 22.9748C131.046 22.931 130.959 22.8871 130.871 22.8652C130.849 22.8652 130.827 22.8652 130.827 22.8652H121.554V16.8145H131.507C131.529 16.8145 131.551 16.8145 131.573 16.8145H131.594C131.66 16.8145 131.704 16.7926 131.748 16.7707C131.792 16.7487 131.836 16.7268 131.879 16.7049C131.901 16.683 131.923 16.683 131.923 16.6611C131.945 16.6391 131.945 16.6391 131.967 16.6172C132.033 16.5295 132.077 16.4418 132.099 16.3322C132.099 16.3103 132.099 16.2884 132.099 16.2665V16.2445L132.055 14.4688Z" fill="#142630"/>
<path d="M147.863 26.5921C147.863 28.8282 147.183 30.6478 145.824 32.0728C144.465 33.4978 142.711 34.1993 140.562 34.1993C138.392 34.1993 136.638 33.4978 135.279 32.0728C133.92 30.6698 133.24 28.8282 133.24 26.5702C133.24 24.2902 133.92 22.4487 135.279 21.0457C136.638 19.6426 138.414 18.9192 140.562 18.9192C142.711 18.9192 144.465 19.6207 145.824 21.0457C147.183 22.4926 147.863 24.3341 147.863 26.5921ZM136.441 26.5921C136.441 28.0829 136.814 29.2886 137.559 30.1874C138.304 31.0863 139.313 31.5467 140.562 31.5467C141.79 31.5467 142.777 31.0863 143.522 30.1874C144.267 29.2886 144.662 28.0829 144.662 26.5921C144.662 25.0795 144.289 23.8737 143.544 22.9749C142.799 22.0761 141.812 21.6157 140.562 21.6157C139.291 21.6157 138.304 22.0761 137.559 22.9749C136.814 23.8737 136.441 25.0795 136.441 26.5921Z" fill="#142630"/>
<path d="M164.193 26.5921C164.193 28.8282 163.513 30.6478 162.154 32.0728C160.795 33.4978 159.041 34.1993 156.892 34.1993C154.722 34.1993 152.968 33.4978 151.609 32.0728C150.25 30.6698 149.57 28.8282 149.57 26.5702C149.57 24.2902 150.25 22.4487 151.609 21.0457C152.968 19.6426 154.744 18.9192 156.892 18.9192C159.041 18.9192 160.795 19.6207 162.154 21.0457C163.513 22.4926 164.193 24.3341 164.193 26.5921ZM152.749 26.5921C152.749 28.0829 153.122 29.2886 153.867 30.1874C154.613 31.0863 155.621 31.5467 156.871 31.5467C158.098 31.5467 159.085 31.0863 159.83 30.1874C160.576 29.2886 160.97 28.0829 160.97 26.5921C160.97 25.0795 160.597 23.8737 159.852 22.9749C159.107 22.0761 158.12 21.6157 156.871 21.6157C155.599 21.6157 154.613 22.0761 153.867 22.9749C153.122 23.8737 152.749 25.0795 152.749 26.5921Z" fill="#142630"/>
<path d="M179.955 14.0743C179.955 14.0523 179.955 14.0523 179.955 14.0743C179.955 14.0523 179.955 14.0523 179.955 14.0304V14.0085C179.955 13.9866 179.955 13.9646 179.955 13.9427C179.955 13.9208 179.955 13.9208 179.955 13.8989C179.933 13.8331 179.911 13.7673 179.867 13.7016C179.845 13.6796 179.823 13.6577 179.802 13.6358C179.78 13.6139 179.758 13.592 179.736 13.592C179.67 13.5481 179.582 13.5043 179.495 13.5043C179.473 13.5043 179.451 13.5043 179.451 13.5043C179.429 13.5043 179.407 13.5043 179.407 13.5043H177.5C177.478 13.5043 177.456 13.5043 177.456 13.5043C177.434 13.5043 177.434 13.5043 177.412 13.5043C177.39 13.5043 177.368 13.5043 177.324 13.5262C177.259 13.5481 177.193 13.57 177.149 13.6139C177.149 13.6139 177.149 13.6139 177.127 13.6139C177.105 13.6358 177.105 13.6358 177.083 13.6577L177.061 13.6797C177.039 13.7016 177.039 13.7235 177.017 13.7454L176.995 13.7673C176.93 13.855 176.908 13.9427 176.886 14.0523C176.886 14.0523 176.886 14.0523 176.886 14.0743V21.1772C175.899 19.7742 174.387 19.0946 172.392 19.0946C170.55 19.0946 169.038 19.7961 167.81 21.1991C166.604 22.6022 165.99 24.4437 165.99 26.6798C165.99 28.9379 166.582 30.7574 167.788 32.1605C168.972 33.5635 170.506 34.2651 172.348 34.2651C174.496 34.2651 176.075 33.432 177.105 31.7659V33.2786V33.3005V33.3224C177.127 33.4539 177.193 33.5855 177.28 33.6732C177.302 33.6951 177.302 33.6951 177.324 33.717C177.412 33.7828 177.522 33.8485 177.631 33.8485H177.653C177.675 33.8485 177.697 33.8485 177.719 33.8485H179.407C179.429 33.8485 179.451 33.8485 179.473 33.8485H179.495C179.56 33.8485 179.604 33.8266 179.648 33.8047C179.692 33.7828 179.736 33.7608 179.78 33.7389C179.802 33.717 179.823 33.717 179.823 33.6951C179.845 33.6732 179.845 33.6732 179.867 33.6512C179.933 33.5635 179.977 33.4759 179.999 33.3662C179.999 33.3443 179.999 33.3224 179.999 33.3005V33.2786L179.955 14.0743ZM175.812 30.1874C175.066 31.0644 174.102 31.5247 172.896 31.5247C171.756 31.5247 170.835 31.0863 170.134 30.1874C169.454 29.2886 169.103 28.1048 169.103 26.614C169.103 25.1452 169.454 23.9614 170.156 23.0845C170.857 22.1857 171.778 21.7472 172.918 21.7472C174.102 21.7472 175.066 22.1857 175.79 23.0626C176.513 23.9395 176.886 25.1233 176.886 26.614C176.886 28.1048 176.535 29.2886 175.812 30.1874Z" fill="#142630"/>
</svg>
