<svg width="30" height="30" viewBox="0 0 30 30" fill="none" xmlns="http://www.w3.org/2000/svg">
<circle cx="15" cy="15" r="15" fill="#25D366"/>
<g clip-path="url(#clip0)">
<path fill-rule="evenodd" clip-rule="evenodd" d="M21.5936 9.13107C19.9491 7.48463 17.762 6.5775 15.432 6.57654C10.6309 6.57654 6.72343 10.4839 6.7215 15.2863C6.72086 16.8215 7.1219 18.3201 7.88419 19.641L6.64844 24.1547L11.266 22.9434C12.5384 23.6374 13.9708 24.0032 15.4285 24.0036H15.4321C20.2328 24.0036 24.1406 20.0959 24.1425 15.2933C24.1434 12.9658 23.2382 10.7774 21.5936 9.13107ZM15.432 22.5326H15.429C14.13 22.532 12.8559 22.1829 11.7442 21.5234L11.48 21.3665L8.73981 22.0853L9.4712 19.4137L9.299 19.1398C8.57426 17.9871 8.19157 16.6548 8.19221 15.2868C8.19371 11.2952 11.4415 8.04768 15.4349 8.04768C17.3687 8.04832 19.1865 8.80234 20.5533 10.1708C21.9202 11.5393 22.6725 13.3582 22.6719 15.2928C22.6701 19.2847 19.4225 22.5326 15.432 22.5326ZM19.4032 17.1103C19.1856 17.0013 18.1155 16.475 17.916 16.4022C17.7166 16.3296 17.5714 16.2934 17.4264 16.5112C17.2813 16.729 16.8642 17.2193 16.7372 17.3645C16.6102 17.5098 16.4833 17.528 16.2657 17.419C16.048 17.3101 15.3467 17.0802 14.5154 16.3387C13.8684 15.7616 13.4316 15.0489 13.3046 14.8311C13.1778 14.6131 13.3035 14.5066 13.4001 14.3869C13.6357 14.0943 13.8716 13.7876 13.9442 13.6424C14.0168 13.4972 13.9804 13.37 13.9259 13.2611C13.8716 13.1522 13.4364 12.081 13.255 11.6451C13.0782 11.2208 12.899 11.2781 12.7653 11.2715C12.6385 11.2651 12.4933 11.2639 12.3481 11.2639C12.2031 11.2639 11.9673 11.3183 11.7677 11.5363C11.5683 11.7542 11.0061 12.2806 11.0061 13.3519C11.0061 14.4232 11.7859 15.4581 11.8947 15.6033C12.0035 15.7486 13.4295 17.947 15.6127 18.8896C16.132 19.114 16.5373 19.2478 16.8535 19.3481C17.3749 19.5138 17.8492 19.4904 18.2243 19.4344C18.6425 19.3719 19.5119 18.9078 19.6934 18.3995C19.8747 17.8911 19.8747 17.4554 19.8202 17.3645C19.7659 17.2737 19.6208 17.2193 19.4032 17.1103Z" fill="white"/>
</g>
<defs>
<clipPath id="clip0">
<rect width="18.75" height="18.75" fill="white" transform="translate(6 6)"/>
</clipPath>
</defs>
</svg>
