<svg width="30" height="30" viewBox="0 0 30 30" fill="none" xmlns="http://www.w3.org/2000/svg">
<circle cx="15" cy="15" r="15" fill="#665CAC"/>
<g clip-path="url(#clip0)">
<path d="M24.09 16.8539C24.6494 12.1453 23.8212 9.17266 22.3275 7.82813L22.3283 7.82735C19.9173 5.53125 11.7752 5.19141 8.89078 7.93047C7.59547 9.27032 7.13922 11.2367 7.08922 13.6711C7.03922 16.1063 6.97984 20.668 11.2306 21.9055H11.2345L11.2306 23.7953C11.2306 23.7953 11.2017 24.5609 11.6908 24.7148C12.2502 24.8961 12.5033 24.5406 14.2431 22.4625C17.1525 22.7148 19.3869 22.1367 19.6408 22.0523C20.2283 21.8555 23.5525 21.4156 24.09 16.8539ZM14.5298 21.1328C14.5298 21.1328 12.6884 23.4289 12.1158 24.025C11.9283 24.2188 11.7228 24.2008 11.7259 23.8164C11.7259 23.5641 11.74 20.6789 11.74 20.6789C8.13609 19.6461 8.34859 15.7617 8.38765 13.7297C8.42672 11.6969 8.79859 10.032 9.89547 8.91094C12.4259 6.53829 19.5642 7.06875 21.383 8.77813C23.6064 10.7492 22.815 16.318 22.8197 16.5078C22.3627 20.3156 19.6689 20.557 19.1736 20.7219C18.9619 20.7922 16.997 21.2977 14.5298 21.1328Z" fill="white"/>
<path d="M15.5479 9.35712C15.2471 9.35712 15.2471 9.82587 15.5479 9.82977C17.8814 9.84774 19.8033 11.4743 19.8244 14.4579C19.8244 14.7727 20.2853 14.7688 20.2814 14.454H20.2807C20.2557 11.2391 18.1572 9.37509 15.5479 9.35712Z" fill="white"/>
<path d="M18.6181 13.9633C18.6111 14.2742 19.0712 14.2891 19.0751 13.9742C19.1134 12.2016 18.0205 10.7414 15.9665 10.5875C15.6658 10.5657 15.6345 11.0383 15.9345 11.0602C17.7158 11.1953 18.6541 12.411 18.6181 13.9633Z" fill="white"/>
<path d="M18.1264 15.9796C17.7404 15.7562 17.3474 15.8953 17.1849 16.1148L16.8451 16.5546C16.6724 16.7781 16.3498 16.7484 16.3498 16.7484C13.9951 16.1257 13.3654 13.6617 13.3654 13.6617C13.3654 13.6617 13.3365 13.3281 13.5521 13.1492L13.9771 12.7976C14.1896 12.6289 14.324 12.2226 14.1076 11.8234C13.5295 10.7789 13.1412 10.4187 12.9435 10.1421C12.7357 9.88199 12.4232 9.8234 12.0982 9.99918H12.0912C11.4154 10.3945 10.6756 11.1343 10.9123 11.8961C11.3162 12.6992 12.0584 15.2593 14.424 17.1937C15.5357 18.1086 17.2951 19.0461 18.042 19.2625L18.049 19.2734C18.7849 19.5187 19.5006 18.75 19.8826 18.0539V18.0484C20.0521 17.7117 19.9959 17.3929 19.7482 17.1843C19.3092 16.7562 18.6467 16.2836 18.1264 15.9796Z" fill="white"/>
<path d="M16.2889 12.3313C17.0397 12.3751 17.4037 12.7672 17.4428 13.5727C17.4569 13.8876 17.9139 13.8657 17.8998 13.5508C17.8498 12.4993 17.3014 11.9133 16.3139 11.8587C16.0131 11.8407 15.985 12.3133 16.2889 12.3313Z" fill="white"/>
</g>
<defs>
<clipPath id="clip0">
<rect width="18.75" height="18.75" fill="white" transform="translate(6 6)"/>
</clipPath>
</defs>
</svg>
